<?xml version="1.0" encoding="UTF-8" standalone="no"?>
<!-- Created with Inkscape (http://www.inkscape.org/) -->

<svg
   width="10mm"
   height="10mm"
   viewBox="0 0 9.9999998 10"
   version="1.1"
   id="svg5"
   xml:space="preserve"
   inkscape:version="1.2.2 (b0a8486541, 2022-12-01)"
   sodipodi:docname="apiinnovators_logo.svg"
   inkscape:export-filename="Exported/Raster Graphic/apiinnovators_logo_exported_1024x1024.webp"
   inkscape:export-xdpi="2600.96"
   inkscape:export-ydpi="2600.96"
   xmlns:inkscape="http://www.inkscape.org/namespaces/inkscape"
   xmlns:sodipodi="http://sodipodi.sourceforge.net/DTD/sodipodi-0.dtd"
   xmlns="http://www.w3.org/2000/svg"
   xmlns:svg="http://www.w3.org/2000/svg"><sodipodi:namedview
     id="namedview7"
     pagecolor="#ffffff"
     bordercolor="#666666"
     borderopacity="1.0"
     inkscape:showpageshadow="2"
     inkscape:pageopacity="0.0"
     inkscape:pagecheckerboard="0"
     inkscape:deskcolor="#d1d1d1"
     inkscape:document-units="mm"
     showgrid="false"
     inkscape:zoom="11.313709"
     inkscape:cx="2.6958445"
     inkscape:cy="13.435028"
     inkscape:window-width="1920"
     inkscape:window-height="1004"
     inkscape:window-x="1920"
     inkscape:window-y="0"
     inkscape:window-maximized="1"
     inkscape:current-layer="g499" /><defs
     id="defs2"><inkscape:path-effect
       effect="mirror_symmetry"
       start_point="97.665604,156.60831"
       end_point="97.665604,166.60831"
       center_point="97.665604,161.60831"
       id="path-effect492"
       is_visible="true"
       lpeversion="1.2"
       lpesatellites=""
       mode="vertical"
       discard_orig_path="false"
       fuse_paths="false"
       oposite_fuse="false"
       split_items="false"
       split_open="false"
       link_styles="false" /><inkscape:path-effect
       effect="mirror_symmetry"
       start_point="111.58216,159.53334"
       end_point="111.58216,166.81468"
       center_point="111.58216,163.17401"
       id="path-effect432"
       is_visible="true"
       lpeversion="1.2"
       lpesatellites=""
       mode="free"
       discard_orig_path="false"
       fuse_paths="false"
       oposite_fuse="false"
       split_items="false"
       split_open="false"
       link_styles="false" /><inkscape:path-effect
       center_point="99.172116,182.06555"
       end_point="99.172116,187.06555"
       start_point="99.172116,177.06555"
       effect="mirror_symmetry"
       id="path-effect430"
       is_visible="true"
       lpeversion="1.2"
       lpesatellites=""
       mode="vertical"
       discard_orig_path="false"
       fuse_paths="true"
       oposite_fuse="false"
       split_items="false"
       split_open="false"
       link_styles="false" /></defs><g
     inkscape:label="Layer 1"
     inkscape:groupmode="layer"
     id="layer1"
     transform="translate(0.00949276,-0.3426228)"><g
       id="g499"
       transform="matrix(0.47501527,0,0,0.47519943,-4.697015,23.17933)"><path
         style="fill:#00baeb;fill-opacity:1;stroke-width:0.0846667"
         d="m 106.5868,165.87678 -1.77988,-1.11235 1.05189,-1.44672 1.68966,0.98316 m 9.02905,1.57591 1.77988,-1.11235 -1.05189,-1.44672 -1.68966,0.98316"
         id="path418"
         sodipodi:nodetypes="cccc"
         inkscape:path-effect="#path-effect432"
         inkscape:original-d="m 106.5868,165.87678 -1.77988,-1.11235 1.05189,-1.44672 1.68966,0.98316"
         class="UnoptimicedTransforms"
         transform="translate(-91.173316,-202.99491)" /><path
         style="fill:#007ac9;stroke-width:0.0846667;fill-opacity:1"
         d="m 104.69141,184.41406 c -0.44815,5.4e-4 -0.29434,0.01 -0.67774,0.0527 -1.14647,0.26975 -2.81888,1.162 -3.43555,1.95312 -0.39148,0.50223 -0.797135,1.0406 -1.070308,1.60938 -0.399328,0.64493 -1.08681,1.04489 -1.599609,1.59375 -0.769841,0.6336 -1.014574,1.66592 -0.990234,2.62304 -0.0043,0.95558 0.500656,1.87293 1.328125,2.35743 0.833692,0.38514 1.067606,1.33744 1.667968,1.95703 0.970768,0.78394 2.187758,1.55083 3.427738,1.54883 l 1.34961,-0.002 1.34765,0.002 c 1.23998,0.002 2.45697,-0.76489 3.42774,-1.54883 0.60036,-0.61959 0.83427,-1.57189 1.66797,-1.95703 0.82746,-0.4845 1.33242,-1.40185 1.32812,-2.35743 0.0243,-0.95712 -0.22039,-1.98944 -0.99023,-2.62304 -0.5128,-0.54886 -1.20028,-0.94882 -1.59961,-1.59375 -0.27318,-0.56878 -0.67883,-1.10715 -1.07032,-1.60938 -0.61667,-0.79112 -2.28907,-1.68337 -3.43554,-1.95312 -0.3834,-0.0429 -0.22764,-0.0522 -0.67578,-0.0527 z m 0,2.05274 c 2.39461,0.0291 3.07802,1.98571 3.82812,3.06445 0.47289,0.73216 1.2875,1.07824 2.04297,1.4375 -0.0407,0.53256 -0.0397,1.07034 -0.14258,1.5957 -0.62842,0.61595 -1.56476,0.94289 -1.95312,1.79297 -0.56438,1.03736 -2.27735,1.50956 -3.77539,1.70117 -1.49804,-0.19161 -3.21297,-0.66381 -3.77735,-1.70117 -0.38836,-0.85008 -1.324706,-1.17702 -1.953122,-1.79297 -0.10292,-0.52536 -0.101899,-1.06314 -0.142579,-1.5957 0.755467,-0.35926 1.570081,-0.70534 2.042971,-1.4375 0.7501,-1.07874 1.43547,-3.03532 3.83008,-3.06445 z"
         id="path412"
         sodipodi:nodetypes="cssssssscccccsscc"
         transform="matrix(1.0009986,0,0,1.0009986,-84.400846,-225.3068)"
         class="UnoptimicedTransforms"
         inkscape:path-effect="#path-effect430"
         inkscape:original-d="m 104.7212,198.10799 -1.38017,0.002 c -1.23998,0.002 -2.4561,-0.76617 -3.426868,-1.55011 -0.600362,-0.61959 -0.833486,-1.5717 -1.667178,-1.95684 -0.827469,-0.4845 -1.333075,-1.4017 -1.32878,-2.35728 -0.02434,-0.95712 0.219557,-1.98886 0.989398,-2.62246 0.512799,-0.54886 1.200174,-0.94861 1.599503,-1.59354 0.273173,-0.56878 0.680145,-1.10727 1.071635,-1.6095 0.61667,-0.79112 2.28823,-1.68442 3.4347,-1.95417 0.39833,-0.0446 0.21599,-0.0515 0.73218,-0.0515 l -9e-4,2.05281 c -2.43862,0 -3.12721,1.97797 -3.88295,3.06482 -0.47289,0.73216 -1.287881,1.07691 -2.043348,1.43617 0.04068,0.53256 0.03958,1.07135 0.1425,1.59671 0.628417,0.61595 1.564158,0.94184 1.952518,1.79192 0.56784,1.04372 2.30002,1.51603 3.80452,1.70536 z" /><path
         d="m 19.34153,-43.461871 2.105196,7.35e-4 v 7.702548 H 19.34153"
         style="fill:#00baeb;fill-opacity:1;stroke-width:0.266521"
         id="path2731"
         sodipodi:nodetypes="cccc" /><path
         style="fill:#00ccf4;stroke-width:1;fill-opacity:1"
         id="path486"
         inkscape:path-effect="#path-effect492"
         sodipodi:type="arc"
         sodipodi:cx="95.165604"
         sodipodi:cy="164.47833"
         sodipodi:rx="2.5262346"
         sodipodi:ry="2.5252554"
         d="m 97.691838,164.47833 c 0,1.39466 -1.131034,2.52526 -2.526234,2.52526 -1.395201,0 -2.526235,-1.1306 -2.526235,-2.52526 0,-1.39466 1.131034,-2.52525 2.526235,-2.52525 1.3952,0 2.526234,1.13059 2.526234,2.52525 z m 10.947012,0 c 0,1.39466 1.13104,2.52526 2.52624,2.52526 1.3952,0 2.52623,-1.1306 2.52623,-2.52526 0,-1.39466 -1.13103,-2.52525 -2.52623,-2.52525 -1.3952,0 -2.52624,1.13059 -2.52624,2.52525 z"
         class="UnoptimicedTransforms"
         transform="translate(-82.771218,-204.64401)" /><ellipse
         style="fill:#00ccf4;stroke-width:1;fill-opacity:1"
         id="path488"
         cx="20.394129"
         cy="-33.852539"
         rx="2.5262346"
         ry="2.5252554" /><ellipse
         style="fill:#00ccf4;stroke-width:1;fill-opacity:1"
         id="path490"
         cx="20.394129"
         cy="-45.531845"
         rx="2.5262346"
         ry="2.5252554" /></g></g></svg>
